# xmcd CD database file
#
# Track frame offsets:
#	150
#	4863
#	27735
#	47293
#	74335
#	98951
#	124255
#	154060
#	179465
#	203675
#
# Disc length: 3054 seconds
#
# Revision: 0
# Processed by: cddbd v1.5.1PL0 Copyright (c) Steve Scherf et al.
# Submitted via: CDex 1.51
#
DISCID=840bec0a
DTITLE=Mastermind - Song For The New World
DYEAR=1900
DGENRE=Heavy Metal
TTITLE0=Departure
TTITLE1=Say Your Prayer
TTITLE2=Hold On
TTITLE3=Wanderer
TTITLE4=Never Say Never
TTITLE5=Note Of Glory
TTITLE6=The Landscape
TTITLE7=Nothing Lasts Forever
TTITLE8=Run For Your Life
TTITLE9=To Eternity
EXTD=
EXTT0=
EXTT1=
EXTT2=
EXTT3=
EXTT4=
EXTT5=
EXTT6=
EXTT7=
EXTT8=
EXTT9=
PLAYORDER=
